<svg width="65" height="33" viewBox="0 0 65 33" fill="none" xmlns="http://www.w3.org/2000/svg">
<g clip-path="url(#clip0_1460_133)">
<path d="M21.313 28.386H16.1128V0.373047H24.3862V24.2014" fill="white"/>
<path d="M3.13943 28.933H8.33967L8.27941 17.2644L0 17.3059L0.0421802 24.2573" fill="white"/>
<path d="M24.2296 24.3817L19.7766 31.6581H4.89291L0.0180664 24.188H24.3863L24.2296 24.3817Z" fill="#3D77FF"/>
<path d="M44.5968 23.3921L51.7133 23.1016L40.0654 0.393799C39.5352 4.45626 38.9989 8.51872 38.4565 12.5812L44.5968 23.3921Z" fill="#3D77FF"/>
<path d="M40.1798 32.6815H33.1477L33.2501 0.947298L40.0653 0.297119L40.1798 32.6815Z" fill="white"/>
<path d="M53.8885 23.4823L46.7058 23.3163L58.1548 0.103516L59.9263 12.4223L53.8885 23.4823Z" fill="white"/>
<path d="M57.9739 32.9932H64.9999L64.9035 0.664091L58.0884 -0.0275879L57.9739 32.9932Z" fill="#3D77FF"/>
</g>
<defs>
<clipPath id="clip0_1460_133">
<rect width="65" height="33" fill="white"/>
</clipPath>
</defs>
</svg>
